<svg width="218" height="218" viewBox="0 0 218 218" fill="none" xmlns="http://www.w3.org/2000/svg">
<g clip-path="url(#clip0_12_62)">
<g clip-path="url(#clip1_12_62)">
<path d="M130.502 0.255438C117.303 1.78825 110.022 3.66169 101.08 7.87692C89.7547 13.1992 82.1758 20.0117 77.9179 28.655C67.3586 50.0293 85.9652 73.1066 119.219 79.7914C122.157 80.3875 126.372 81.0261 128.586 81.1965L132.631 81.5371L139.954 93.0332C143.999 99.3347 147.618 104.785 148.044 105.04C149.151 105.892 151.11 105.679 152.132 104.614C152.898 103.848 153.537 101.464 155.58 91.6707L158.093 79.6636L160.264 79.1527C164.139 78.2586 171.249 75.7465 175.294 73.873C186.535 68.6359 195.476 60.0351 198.968 51.0937C202.8 41.3007 200.926 30.9968 193.603 21.8C184.704 10.6019 166.693 2.34177 146.937 0.425751C142.85 0.0425478 133.44 -0.0426085 130.502 0.255438ZM148.342 7.45114C168.78 9.83552 185.811 19.075 191.602 30.8691C196.157 40.1937 194.454 49.3054 186.535 57.6082C179.85 64.591 170.227 69.6578 158.05 72.6383C154.346 73.5324 153.068 74.0008 152.6 74.7246C152.259 75.2355 151.195 79.5359 150.173 84.2195C149.194 88.9457 148.3 92.8203 148.172 92.8203C148.044 92.8203 145.489 88.9883 142.466 84.3047C139.486 79.6211 136.676 75.6187 136.293 75.4058C135.909 75.1929 133.184 74.7672 130.246 74.5117C106.573 72.3828 87.7961 61.7808 82.9422 47.7726C81.5797 43.8554 81.5797 37.5539 82.9422 33.8922C84.3472 30.0601 86.3058 27.0371 89.6269 23.6308C101.677 11.2406 125.265 4.76872 148.342 7.45114Z" fill="#ED1C24"/>
<path d="M115.812 27.25V30.6562H124.328H132.844V27.25V23.8437H124.328H115.812V27.25Z" fill="#ED1C24"/>
<path d="M139.656 27.25V30.6562H143.062H146.469V27.25V23.8437H143.062H139.656V27.25Z" fill="#ED1C24"/>
<path d="M153.281 27.25V30.6562H161.797H170.312V27.25V23.8437H161.797H153.281V27.25Z" fill="#ED1C24"/>
<path d="M105.594 40.875V44.2812H126.031H146.469V40.875V37.4687H126.031H105.594V40.875Z" fill="#ED1C24"/>
<path d="M153.281 40.875V44.2812H161.797H170.312V40.875V37.4687H161.797H153.281V40.875Z" fill="#ED1C24"/>
<path d="M105.594 54.5V57.9062H112.406H119.219V54.5V51.0937H112.406H105.594V54.5Z" fill="#ED1C24"/>
<path d="M126.031 54.5V57.9062H144.766H163.5V54.5V51.0937H144.766H126.031V54.5Z" fill="#ED1C24"/>
<path d="M67.6566 20.991C65.9109 21.8 62.9304 23.3328 61.057 24.4398C40.875 36.7023 35.2547 55.6922 47.0062 72.1273C50.7531 77.407 58.4172 83.4957 65.4851 86.8594C67.6992 87.9238 68.5082 88.4773 68.3379 88.9883C67.8269 90.7765 64.7187 105.296 64.7187 106.02C64.7187 107.297 66.5922 109 67.9547 109C68.7211 109 72.9363 106.573 80.4726 101.762L91.7984 94.566L95.6304 94.9492C103.635 95.8008 112.875 95.3324 122.199 93.5867C126.287 92.8203 127.266 92.5223 128.245 91.5004C129.736 90.0101 129.778 88.4348 128.33 86.9871C127.096 85.7523 127.138 85.7523 118.367 87.3277C112.577 88.3496 101.293 88.6476 93.8847 88.009L90.0527 87.6683L81.8351 92.8629C77.3218 95.7156 73.575 97.9723 73.4898 97.8871C73.4047 97.8019 73.9156 95.3324 74.5543 92.3945C75.2355 89.4566 75.789 86.6465 75.789 86.1355C75.789 84.7305 74.1711 83.2828 71.1054 81.9629C67.1457 80.3023 62.4195 77.4496 59.0133 74.7672C45.2605 63.7394 44.0258 48.8797 55.8625 37.0004C59.439 33.4664 63.2285 30.8691 69.1468 27.8887C74.5968 25.1637 75.3633 24.3547 74.7672 22.0129C74.5117 20.9484 72.6383 19.5859 71.4461 19.5859C71.148 19.5859 69.4449 20.2246 67.6566 20.991Z" fill="#ED1C24"/>
<path d="M41.982 113.087C31.0394 115.727 23.2902 126.287 23.9715 137.527C24.3547 143.616 26.6539 148.768 30.8691 152.941L33.2109 155.325L30.3582 156.219C19.7988 159.412 11.4961 166.055 7.19567 174.783C5.15192 178.871 4.93903 179.68 2.42693 191.985C-0.638699 207.27 -0.723856 206.461 4.25778 208.292C9.49489 210.251 18.9898 212.805 25.1211 213.912C34.1476 215.573 40.7047 215.999 51.2214 215.743C65.6129 215.403 76.5554 213.402 89.7546 208.761C96.3117 206.461 96.0562 207.653 93.0757 192.623C91.2023 183.299 90.223 179.296 89.2011 176.912C84.8582 166.906 77.8754 160.775 65.9109 156.475L62.164 155.155L64.1226 153.324C66.6773 150.939 69.1043 147.065 70.339 143.573C71.6164 139.827 71.7015 132.971 70.5093 129.437C69.1468 125.393 67.1457 122.071 64.5058 119.432C58.7152 113.641 49.9441 111.171 41.982 113.087ZM54.6703 120.837C58.5449 122.625 61.0144 125.094 62.9304 128.927C64.4207 131.992 64.5058 132.375 64.5058 136.25C64.5058 140.125 64.4207 140.508 62.9304 143.573C61.0144 147.448 58.5449 149.832 54.5851 151.706C51.9879 152.941 51.3492 153.068 47.6875 153.068C44.0257 153.068 43.3871 152.941 40.7898 151.706C36.83 149.832 34.3605 147.448 32.4445 143.573C30.9543 140.508 30.8691 140.125 30.8691 136.293C30.8691 132.588 30.9968 131.95 32.2316 129.352C33.9347 125.733 36.3617 123.093 39.555 121.433C42.8761 119.644 44.7496 119.219 48.6242 119.389C51.2214 119.517 52.5414 119.857 54.6703 120.837ZM56.8843 161.158C67.4863 163.159 76.3425 168.354 80.6429 175.124C83.0273 178.871 84.0492 182.021 86.0078 191.814C86.9445 196.753 87.8386 201.096 87.9664 201.48C88.1367 202.076 87.3277 202.459 83.3679 203.694C77.6625 205.525 71.0203 207.015 64.2929 208.079C57.2675 209.186 38.0648 209.144 31.082 208.037C24.4824 207.015 16.4351 205.184 11.3683 203.523C8.00466 202.459 7.23825 202.076 7.40857 201.48C7.5363 201.096 8.43044 196.753 9.36716 191.814C10.3465 186.875 11.6238 181.681 12.1347 180.233C14.5191 173.889 19.0324 168.993 25.5043 165.671C31.082 162.819 35.4675 161.541 43.6425 160.349C45.8992 160.009 53.3078 160.477 56.8843 161.158Z" fill="#ED1C24"/>
<path d="M164.607 113.087C153.664 115.727 145.915 126.287 146.596 137.527C146.98 143.616 149.279 148.768 153.494 152.941L155.836 155.325L152.983 156.219C142.424 159.412 134.121 166.055 129.821 174.783C127.777 178.871 127.564 179.68 125.052 191.985C121.986 207.27 121.901 206.461 126.883 208.292C135.909 211.656 148.64 214.509 158.944 215.488C165.927 216.127 181.638 215.743 187.77 214.807C197.137 213.359 206.546 211.017 213.742 208.292C218.724 206.461 218.639 207.27 215.573 191.985C213.061 179.552 212.891 178.913 210.719 174.57C208.761 170.653 207.994 169.631 204.418 166.055C199.904 161.584 195.689 159.029 188.578 156.517L184.789 155.155L186.748 153.324C189.302 150.939 191.729 147.065 192.964 143.573C194.241 139.827 194.327 132.971 193.134 129.437C191.772 125.393 189.771 122.071 187.131 119.432C181.34 113.641 172.569 111.171 164.607 113.087ZM177.295 120.837C181.17 122.625 183.639 125.095 185.555 128.927C187.046 131.992 187.131 132.375 187.131 136.25C187.131 140.125 187.046 140.508 185.555 143.573C183.639 147.448 181.17 149.832 177.21 151.706C174.613 152.941 173.974 153.068 170.312 153.068C166.651 153.068 166.012 152.941 163.415 151.706C159.455 149.832 156.986 147.448 155.07 143.573C153.579 140.508 153.494 140.125 153.494 136.293C153.494 132.588 153.622 131.95 154.857 129.352C156.56 125.733 158.987 123.093 162.18 121.433C165.501 119.645 167.375 119.219 171.249 119.389C173.846 119.517 175.166 119.857 177.295 120.837ZM179.509 161.158C190.111 163.159 198.968 168.354 203.268 175.124C205.652 178.871 206.674 182.021 208.633 191.814C209.569 196.754 210.464 201.096 210.591 201.48C210.762 202.076 209.953 202.459 205.993 203.694C200.287 205.525 193.645 207.015 186.918 208.079C179.893 209.186 160.69 209.144 153.707 208.037C147.107 207.015 139.06 205.184 133.993 203.523C130.63 202.459 129.863 202.076 130.034 201.48C130.161 201.096 131.055 196.754 131.992 191.814C132.971 186.875 134.249 181.681 134.76 180.233C137.144 173.889 141.657 168.993 148.129 165.671C153.707 162.819 158.093 161.541 166.268 160.349C168.524 160.009 175.933 160.477 179.509 161.158Z" fill="#ED1C24"/>
</g>
</g>
<defs>
<clipPath id="clip0_12_62">
<rect width="218" height="218" fill="white"/>
</clipPath>
<clipPath id="clip1_12_62">
<rect width="218" height="218" fill="white"/>
</clipPath>
</defs>
</svg>
