<svg width="289" height="288" viewBox="0 0 289 288" fill="none" xmlns="http://www.w3.org/2000/svg">
<g clip-path="url(#clip0_12_31)">
<path d="M182.923 36.247C172.864 38.551 160.725 46.7558 150.834 58.0514C141.787 68.3354 132.121 85.0258 127.738 97.8949C126.726 100.93 125.658 103.402 125.377 103.402C125.153 103.402 123.41 102.503 121.612 101.379C110.822 94.8603 94.4128 90.4207 80.9256 90.4769C71.5969 90.5331 57.6601 93.1744 55.4684 95.3661C53.8387 97.052 53.8387 99.4684 55.5808 101.098C57.1543 102.559 57.2667 102.559 66.0334 100.705C68.9557 100.087 72.5523 99.4684 74.0696 99.2999L76.7108 99.0189V115.541V132.063L74.0696 131.725C63.5046 130.545 54.5693 128.522 46.9265 125.488C42.3183 123.689 32.3153 118.575 32.3153 118.07C32.3153 117.676 37.7664 113.349 42.2621 110.146C45.0158 108.235 45.8026 106.156 44.6224 104.02C43.4985 102.053 41.2506 101.435 38.9465 102.503C33.383 105.201 21.6379 115.878 16.1868 123.296C4.04828 139.705 -1.57141 160.948 0.845057 180.954C5.22841 216.246 31.4724 244.063 66.8764 250.975C70.4168 251.65 74.6877 251.987 80.9256 251.987C90.76 251.987 96.9417 251.088 104.809 248.615C108.968 247.322 109.53 247.266 109.979 248.053C110.26 248.559 111.665 249.626 113.126 250.469L115.768 252.043L139.932 252.212C166.12 252.38 167.75 252.268 171.234 249.514L173.257 247.828L176.348 249.289C180.9 251.369 187.025 252.493 191.409 252.099C198.602 251.481 207.425 247.828 214.281 242.714L217.203 240.466V245.018C217.203 249.121 217.372 249.683 218.608 250.919L219.957 252.324H252.607H285.257L286.606 250.919L288.011 249.57V200.342V151.113L286.606 149.765L285.257 148.36H272.388H259.519L259.182 137.795C258.732 124.476 257.271 116.103 255.136 114.192C253.338 112.675 252.045 112.619 250.134 114.136C248.392 115.485 248.336 116.777 249.516 123.633C250.472 129.197 251.483 143.864 251.09 146.505L250.809 148.36H235.355H219.957L218.608 149.765L217.203 151.113V175.615V200.061H196.41H175.617V196.352C175.617 189.271 171.459 184.438 164.771 183.82L161.287 183.483L161.568 179.83C163.535 154.373 155.499 131.725 138.359 114.417L132.851 108.797L134.875 102.896C135.999 99.637 137.909 94.8603 139.089 92.2752L141.281 87.6671L189.779 87.7795L238.221 87.9481L240.974 94.4107C242.435 97.9511 244.178 101.379 244.739 101.941C246.257 103.458 249.123 103.346 250.472 101.773C251.933 99.918 251.764 98.3445 249.516 92.9496C241.649 73.8989 230.128 57.7704 216.697 46.9244C205.57 37.9329 193.038 33.9429 182.923 36.247ZM195.005 44.6765C201.636 46.3624 210.628 51.9259 216.36 57.8266L218.552 60.1306H189.386L160.163 60.0744L162.973 57.4894C172.189 49.0037 181.855 44.0583 189.386 43.8897C190.678 43.8335 193.207 44.2269 195.005 44.6765ZM229.679 73.5617C231.477 76.1467 232.938 78.507 232.938 78.788C232.938 79.0128 213.325 79.2376 189.329 79.2376H145.777L146.732 77.5517C147.294 76.6525 148.924 74.236 150.441 72.213L153.139 68.5602L189.779 68.6726L226.363 68.8412L229.679 73.5617ZM94.9748 100.368C100.819 101.492 108.181 103.964 113.351 106.549C118.184 108.966 126.389 114.473 128.581 116.777L130.098 118.407L124.647 121.217C117.51 124.926 109.417 127.904 101.999 129.59C96.2111 130.882 86.3767 132.119 85.5899 131.669C85.0842 131.388 84.9718 99.8056 85.4775 99.356C85.8709 98.9627 89.2427 99.2999 94.9748 100.368ZM142.405 132.906C148.025 141.841 152.183 153.586 152.97 162.802L153.307 166.905H119.196H85.1404V153.755V140.605L86.8825 140.267C87.8378 140.099 89.4675 139.93 90.4791 139.93C94.5252 139.93 105.652 137.57 112.733 135.266C119.533 133.018 129.985 128.241 134.313 125.375L135.999 124.307L137.741 126.274C138.64 127.342 140.775 130.321 142.405 132.906ZM31.6409 127.511C42.1498 133.468 55.9742 138.019 67.4383 139.368C70.5292 139.705 73.901 140.155 74.9125 140.267L76.7108 140.548V153.698V166.905H42.7117H8.71262L9.0498 164.488C10.5109 153.755 12.534 146.842 16.4116 139.143C19.7272 132.456 25.0097 124.757 26.1898 124.757C26.4708 124.757 28.9435 125.993 31.6409 127.511ZM279.582 162.128V167.467H270.14C261.43 167.467 260.587 167.579 259.463 168.591C257.665 170.276 257.777 173.199 259.688 174.716C261.093 175.784 261.936 175.896 270.365 175.896H279.582V181.235V186.574H252.607H225.633V181.235V175.896H235.074C245.077 175.84 245.92 175.671 246.931 173.03C247.549 171.344 246.482 168.366 245.02 167.804C244.515 167.635 239.907 167.467 234.849 167.467H225.633V162.128V156.789H252.607H279.582V162.128ZM76.7108 188.765V202.253L74.3506 202.533C64.5161 203.714 61.1443 204.276 55.5808 205.681C47.4323 207.816 39.0589 211.132 32.0905 215.009C29.0559 216.695 26.1898 217.988 25.7965 217.819C23.4362 216.92 15.0067 201.972 12.4778 194.16C10.2299 187.36 8.31924 176.964 9.0498 175.784C9.21839 175.559 24.5039 175.334 43.0489 175.334H76.7108V188.765ZM153.139 177.807C153.139 179.156 152.97 181.066 152.801 182.022L152.464 183.764H134.2C114.138 183.764 113.801 183.82 110.317 187.529C107.732 190.226 107.057 192.643 107.057 199.499C107.057 205.175 106.945 205.737 106.102 205.456C103.91 204.838 96.4921 203.489 93.2889 203.152C91.4344 202.983 88.8494 202.702 87.5568 202.533L85.1404 202.253V189.159C85.1404 181.965 85.309 175.896 85.5337 175.728C85.7023 175.503 101.044 175.334 119.533 175.334H153.139V177.807ZM166.176 193.149C167.132 193.992 167.188 195.509 167.188 217.875C167.188 240.916 167.132 241.703 166.064 242.77C164.996 243.838 164.209 243.894 141.506 243.894C118.24 243.894 118.072 243.894 116.779 242.658L115.487 241.478V218.044C115.487 197.813 115.599 194.497 116.386 193.43L117.229 192.193H141.169C162.692 192.193 165.221 192.306 166.176 193.149ZM279.582 200.342V205.681H270.028C261.205 205.681 260.362 205.793 259.351 206.804C257.665 208.49 257.833 211.469 259.688 212.93C261.093 213.998 261.936 214.11 270.365 214.11H279.582V219.449V224.787H252.607H225.633V219.449V214.11H234.624C244.346 214.11 246.032 213.717 246.875 211.3C247.493 209.502 246.482 206.58 245.02 206.018C244.515 205.849 239.907 205.681 234.849 205.681H225.633V200.342V195.003H252.607H279.582V200.342ZM217.203 213.829V219.168H196.41H175.617V213.829V208.49H196.41H217.203V213.829ZM76.7108 227.204V243.67L72.3837 243.22C63.3922 242.265 53.2767 238.837 44.791 233.891C40.2953 231.306 32.3715 225.406 32.3153 224.675C32.3153 224.506 35.0689 222.877 38.497 221.191C49.5115 215.515 63.055 211.75 75.7555 210.794C76.6546 210.738 76.7108 211.862 76.7108 227.204ZM94.9748 211.918C97.1665 212.199 100.763 212.874 103.011 213.379L107.057 214.335V226.754V239.23L103.011 240.466C97.6161 242.04 91.7154 243.22 88.2312 243.445L85.4213 243.557L85.2528 227.878C85.1966 219.224 85.2528 211.862 85.3652 211.469C85.6461 210.738 86.6015 210.794 94.9748 211.918ZM217.203 228.384C217.203 230.576 205.402 239.23 198.939 241.703C191.69 244.513 186.182 244.4 178.877 241.253L175.617 239.792V233.723V227.597H196.41C214 227.597 217.203 227.71 217.203 228.384ZM279.582 238.556V243.894H252.607H225.633V238.556V233.217H252.607H279.582V238.556Z" fill="#ED1C24"/>
<path d="M125.883 202.028C124.759 203.095 124.478 203.938 124.478 206.13C124.478 209.446 125.658 211.132 128.243 211.637C129.704 211.918 130.323 211.694 131.447 210.57C132.683 209.333 132.908 208.603 132.908 206.074C132.908 203.657 132.627 202.814 131.615 201.859C129.873 200.229 127.569 200.286 125.883 202.028Z" fill="#ED1C24"/>
<path d="M151.172 202.028C148.755 204.388 149.486 209.895 152.408 211.244C154.431 212.143 155.274 212.031 156.791 210.457C158.758 208.547 158.814 203.657 156.904 201.859C155.162 200.229 152.858 200.286 151.172 202.028Z" fill="#ED1C24"/>
<path d="M138.527 213.548C137.684 214.391 137.403 215.403 137.403 217.931C137.403 221.528 138.134 222.708 140.888 223.383C142.124 223.72 142.742 223.439 144.203 222.034C145.833 220.404 145.945 220.011 145.721 217.369C145.496 215.234 145.046 214.166 144.147 213.436C142.517 212.087 139.932 212.143 138.527 213.548Z" fill="#ED1C24"/>
<path d="M125.658 225.687C124.366 227.373 124.085 230.632 125.096 232.88C125.995 234.79 128.3 235.521 130.491 234.622C132.514 233.779 132.908 232.88 132.908 229.339C132.908 227.26 132.627 226.417 131.615 225.462C129.761 223.72 127.119 223.832 125.658 225.687Z" fill="#ED1C24"/>
<path d="M150.947 225.687C147.069 230.576 152.801 238.05 157.072 233.779C157.915 232.936 158.196 231.924 158.196 229.564C158.196 225.799 156.96 224.225 154.038 224.225C152.633 224.225 151.79 224.619 150.947 225.687Z" fill="#ED1C24"/>
<path d="M186.8 98.8503C185.789 99.6371 185.508 100.592 185.283 103.346C185.058 106.437 184.89 106.774 183.766 106.774C181.518 106.774 179.158 107.954 178.483 109.359C177.584 111.326 177.697 112 179.045 113.742C180.001 114.923 180.675 115.204 182.698 115.204H185.171V119.418V123.633H182.698C180.675 123.633 180.001 123.914 179.045 125.094C177.697 126.836 177.584 127.511 178.483 129.478C179.158 130.939 181.518 132.063 183.822 132.063C185.115 132.063 185.171 132.231 185.171 135.996V139.93H182.698C180.675 139.93 180.001 140.211 179.045 141.391C176.404 144.707 178.708 148.36 183.485 148.36H185.171V152.294V156.227H182.923C181.237 156.227 180.282 156.621 179.27 157.632C176.404 160.442 178.09 163.982 182.529 164.488L185.171 164.825V168.647V172.524H182.923C181.237 172.524 180.282 172.918 179.27 173.929C176.404 176.795 178.54 180.954 182.923 180.954H185.171V184.101C185.171 186.855 185.396 187.417 186.857 188.934C188.262 190.283 188.88 190.564 190.116 190.226C192.926 189.552 193.6 188.428 193.6 184.494V180.954H195.567C199.838 180.954 202.03 178.313 200.625 174.941C199.782 172.974 198.883 172.524 195.792 172.524H193.6V168.591V164.657H195.792C200.288 164.657 202.648 160.217 199.782 157.351C198.995 156.564 197.927 156.227 196.129 156.227H193.6V152.294V148.36H195.792C198.827 148.36 201.074 146.449 201.018 143.864C200.962 141.391 199.782 140.324 196.579 139.93L193.881 139.649L193.713 135.94L193.544 132.231L196.129 131.95C199.445 131.557 200.906 130.264 200.906 127.567C200.906 124.926 199.613 123.746 196.41 123.521L193.881 123.352V119.418V115.485L196.41 115.316C199.613 115.091 200.906 113.911 200.906 111.27C200.906 108.629 199.613 107.448 196.242 106.999L193.6 106.605V103.346C193.6 100.761 193.319 99.7495 192.476 98.9065C191.071 97.5016 188.486 97.4454 186.8 98.8503Z" fill="#ED1C24"/>
</g>
<defs>
<clipPath id="clip0_12_31">
<rect width="287.728" height="287.728" fill="white" transform="translate(0.283096)"/>
</clipPath>
</defs>
</svg>
