<svg width="254" height="254" viewBox="0 0 254 254" fill="none" xmlns="http://www.w3.org/2000/svg">
<g clip-path="url(#clip0_12_89)">
<path d="M97.3255 7.12499C93.0703 8.65884 91.8828 10.0937 85.3516 21.375L81.2943 28.4505L71.3984 28.6979C61.651 28.9453 61.5026 28.9453 59.474 30.3307C58.3359 31.0729 56.901 32.6068 56.3073 33.7943C55.2187 35.7734 55.1693 36.3177 55.1693 48.2422C55.1693 58.8307 55.2682 60.8099 56.0104 62.0963C57.2969 64.4219 59.5729 66.3021 61.8984 66.9948L64.0755 67.638L64.1745 101.482L64.3229 135.326L60.4635 136.464C55.2187 138.096 49.2318 140.917 44.6797 144.083C40.0286 147.25 32.7552 154.375 29.4896 158.977C28.2031 160.807 27.0156 162.292 26.8672 162.292C26.7187 162.292 25.3333 161.698 23.7995 160.906C21.375 159.768 20.4349 159.57 16.5755 159.57C12.9635 159.57 11.6771 159.818 9.84635 160.708C6.13541 162.539 3.66145 165.013 1.8802 168.625C0.445307 171.544 0.247391 172.385 0.247391 175.948C0.247391 182.875 0.0989531 182.677 29.0443 213.651C42.9479 228.544 55.3177 241.656 56.5052 242.794C61.9479 247.742 71.1016 248.286 77.0885 243.932C85.1536 238.094 86.2917 226.367 79.513 218.896L77.7812 216.966L83.9661 207.565L90.1016 198.164L92.9219 198.263C94.4557 198.362 100.987 198.659 107.37 198.956C124.687 199.797 137.849 199.747 143.49 198.758C154.029 196.927 165.112 193.068 211.523 174.958C227.06 168.922 240.766 163.578 242.003 163.133C247.643 161.005 251.206 157.443 252.641 152.445C255.362 143.193 248.682 134.435 238.391 133.693L235.026 133.445V100.641V67.8359L236.906 67.2917C240.32 66.3516 242.745 64.1745 243.833 60.9088C244.229 59.8203 244.427 55.2187 244.427 47.8958C244.427 35.8229 244.18 34.289 241.805 31.7656C239.232 28.9948 237.797 28.6979 227.703 28.6979H218.352L213.75 20.6328C208.852 12.0729 206.773 9.45051 203.607 7.81769C200.984 6.43228 196.185 6.08592 193.414 7.02603C192.227 7.47134 183.122 12.5182 173.177 18.2578L155.117 28.6979H149.823H144.479L126.815 18.5052C117.068 12.8646 108.211 7.86717 107.122 7.37238C104.747 6.28384 100.047 6.18488 97.3255 7.12499ZM113.753 22.3646L124.292 28.4505L108.854 28.5989C100.344 28.6484 93.2682 28.5989 93.1198 28.5C92.8229 28.1536 98.4635 18.3073 99.5521 17.2187C101.234 15.5364 102.917 16.1797 113.753 22.3646ZM199.797 17.1693C200.391 17.664 202.172 20.3854 203.854 23.2552L206.823 28.4505L199.203 28.5989C194.997 28.6484 187.922 28.6484 183.469 28.5989L175.404 28.4505L185.794 22.414C191.781 18.901 196.729 16.3281 197.471 16.3281C198.214 16.3281 199.253 16.7239 199.797 17.1693ZM127.161 48.2422V57.8906H123.896C120.977 57.8906 120.531 58.0391 119.195 59.3255C118.156 60.4141 117.76 61.2552 117.76 62.5911C117.76 66.1042 120.036 67.7865 124.737 67.7865H127.161V89.0625C127.161 107.122 127.26 110.586 127.904 111.823C129.536 115.039 131.318 115.039 141.708 111.823L149.724 109.349L157.789 111.823C167.339 114.742 168.724 114.841 170.753 112.862L172.187 111.427V89.6068V67.7865H198.659H225.13V101.927C225.13 120.68 224.932 136.068 224.734 136.068C224.536 136.068 216.273 137.948 206.378 140.273C196.432 142.599 188.12 144.479 187.823 144.479C187.526 144.479 186.883 143.49 186.388 142.302C184.458 137.602 179.708 133.99 174.661 133.297C173.375 133.148 163.479 133.99 151.06 135.276C139.333 136.513 127.904 137.552 125.776 137.552C123.599 137.552 117.76 137.008 112.812 136.315C95.2969 133.891 91.2396 133.544 82.7786 133.544H74.2187V100.641V67.7865H76.4453C82.1849 67.7865 84.9557 62.8385 81.2943 59.1771C80.0573 57.8906 79.9088 57.8906 72.4375 57.8906H64.8177V48.2422V38.5937H95.9896H127.161V48.2422ZM162.292 48.2422V57.8906H149.674H137.057V48.2422V38.5937H149.674H162.292V48.2422ZM234.531 48.2422V57.8906H203.359H172.187V48.2422V38.5937H203.359H234.531V48.2422ZM162.292 85.3021V102.818L156.997 101.135C154.029 100.245 150.911 99.4531 149.971 99.4531C148.635 99.4531 142.846 100.987 137.701 102.669C137.206 102.818 137.057 99.1562 137.057 85.3516V67.7865H149.674H162.292V85.3021ZM175.107 143.737C176.789 144.578 177.878 146.953 177.432 148.685C177.234 149.477 176.195 150.516 174.81 151.456C170.357 154.276 151.109 161.154 138.294 164.518C130.823 166.497 129.388 167.487 129.388 170.654C129.388 172.979 130.971 174.958 133.148 175.404C135.87 175.997 156.107 169.961 170.505 164.271C177.878 161.302 180.451 159.917 183.37 157.245L185.448 155.315L209.891 149.576C226.219 145.716 235.323 143.836 237.401 143.786C240.37 143.737 240.617 143.836 242.003 145.37C243.586 147.151 243.784 148.784 242.695 150.862C241.953 152.297 240.221 153.336 235.867 154.87C234.432 155.365 221.964 160.214 208.06 165.656C166.151 182.083 151.604 187.279 142.945 188.862C137.057 189.901 125.034 189.901 102.818 188.812C90.4974 188.219 86.3906 188.12 85.401 188.565C84.6094 188.961 81.8385 192.721 77.5833 199.203C73.9713 204.745 70.8542 209.247 70.6562 209.148C70.1615 209 34.1406 170.258 34.1406 169.911C34.1406 169.07 39.237 162.589 42.75 158.927C50.6172 150.763 59.5729 146.161 71.2005 144.182C78.4245 142.945 93.2187 143.49 106.628 145.469C123.104 147.893 127.31 147.893 150.664 145.271C173.721 142.747 173.326 142.797 175.107 143.737ZM19.4948 169.763C20.9792 170.456 72.0911 225.031 73.3776 227.307C76.4453 232.75 70.3594 239.034 64.5703 236.411C63.0365 235.719 12.0234 181.242 10.7865 178.966C7.71874 173.523 13.8047 167.19 19.4948 169.763Z" fill="#ED1C24"/>
<path d="M96.9297 59.3256C94.1588 62.0964 95.5443 66.6979 99.4531 67.5391C102.471 68.1823 105.786 64.8672 105.143 61.849C104.302 57.9401 99.7005 56.5547 96.9297 59.3256Z" fill="#ED1C24"/>
</g>
<defs>
<clipPath id="clip0_12_89">
<rect width="253.333" height="253.333" fill="white"/>
</clipPath>
</defs>
</svg>
